#!OML:ASF E:\I on waltz\Acrobat_Osman\acrobat\cartwheel_test 2\Patient 1\Session 1\acrobat.ASF
:FULLY-SPECIFIED
:DEGREES
118
root 5.57334 13.8082 9.63628 -523.261 7.01373 180.35
lowerback 24.621 -0.327181 -2.6949
upperback 11.4465 1.62731 2.72289
thorax -1.15928 1.63071 4.05801
lowerneck -9.42359 -3.44291 -5.11778
upperneck 18.2018 -2.77274 -2.06937
head 7.19612 -1.62449 -0.0444737
rclavicle -2.98177e-014 2.78299e-015
rhumerus -7.76528 2.54653 -78.4024
rradius 28.2107
rwrist -7.52591
rhand -26.5638 25.8845
rfingers 7.12502
rthumb 0.00121892 -4.09523
lclavicle -2.98177e-014 2.78299e-015
lhumerus -9.78554 -9.40363 84.2291
lradius 37.0355
lwrist 37.4909
lhand -20.0769 49.5249
lfingers 7.12502
lthumb 6.26556 79.4123
rfemur -57.1984 3.1735 23.2448
rtibia 75.5033
rfoot -28.2186 -4.3448
rtoes -14.7194
lfemur -57.9812 -0.90972 -24.9635
ltibia 76.7273
lfoot -206.615 188.789
ltoes -20.7295
119
root 5.5361 13.8601 9.63009 -523.438 7.56851 180.576
lowerback 24.104 -0.173664 -2.86836
upperback 11.077 1.64418 2.74565
thorax -1.32452 1.58418 4.17675
lowerneck -9.89331 -3.23247 -4.78768
upperneck 18.3735 -2.43378 -2.4698
head 7.31981 -1.48081 -0.205493
rclavicle -1.74931e-014 9.54166e-015
rhumerus -3.40178 1.67794 -79.2145
rradius 27.3581
rwrist -5.83675
rhand -26.9255 25.3066
rfingers 7.12502
rthumb -0.348161 -4.67283
lclavicle -1.74931e-014 9.54166e-015
lhumerus -7.9676 -10.5506 84.5724
lradius 36.8461
lwrist 36.8034
lhand -19.9448 51.6443
lfingers 7.12502
lthumb 6.3931 81.5279
rfemur -56.5911 3.09316 23.3509
rtibia 74.6714
rfoot -27.7505 -3.76716
rtoes -14.2939
lfemur -57.2115 -0.424773 -25.0494
ltibia 75.9101
lfoot -206.606 189.302
ltoes -21.5425
120
root 5.50327 13.9441 9.6239 -523.627 8.13361 180.692
lowerback 23.551 0.0613866 -2.9143
upperback 10.7779 1.81069 2.55965
thorax -1.40037 1.62772 3.9616
lowerneck -9.90981 -3.21536 -4.37707
upperneck 18.0085 -2.54831 -2.42326
head 7.19557 -1.51131 -0.266683
rclavicle -1.98785e-015 9.14409e-015
rhumerus 0.152273 2.53657 -80.0304
rradius 28.1943
rwrist -7.25853
rhand -27.4136 24.7081
rfingers 7.12502
rthumb -0.819547 -5.27005
lclavicle -1.98785e-015 9.14409e-015
lhumerus -6.33797 -12.5185 84.5337
lradius 37.5687
lwrist 36.8134
lhand -19.2848 52.4906
lfingers 7.12502
lthumb 7.03027 82.3539
rfemur -55.796 3.09917 23.3334
rtibia 73.4869
rfoot -26.9832 -3.26748
rtoes -13.7626
lfemur -56.3502 0.0797063 -25.1889
ltibia 74.8473
lfoot -206.236 189.223
ltoes -21.3775
121
root 5.47321 14.0593 9.61212 -523.719 8.48115 180.905
lowerback 22.939 0.205603 -2.82976
upperback 10.4757 1.89569 2.43312
thorax -1.44027 1.63425 3.75942
lowerneck -9.416 -3.27107 -4.27025
upperneck 17.046 -2.83523 -2.07048
head 6.80004 -1.61602 -0.182409
rclavicle -1.15295e-014 -4.81059e-014
rhumerus 2.84327 5.52446 -80.2721
rradius 30.7663
rwrist -11.4694
rhand -27.6579 24.3594
rfingers 7.12502
rthumb -1.05555 -5.6177
lclavicle -1.15295e-014 -4.81059e-014
lhumerus -4.94711 -14.2285 84.5041
lradius 39.2252
lwrist 36.6982
lhand -18.0615 54.2796
lfingers 7.12502
lthumb 8.21097 84.1001
rfemur -54.8167 3.06002 23.4553
rtibia 71.9171
rfoot -26.1016 -2.94469
rtoes -13.4974
lfemur -55.4679 0.534451 -25.1347
ltibia 73.4818
lfoot -205.57 188.66
ltoes -20.4758
122
root 5.44788 14.1962 9.59351 -523.599 8.64524 181.214
lowerback 22.1213 0.29402 -2.67588
upperback 10.1366 1.91353 2.36066
thorax -1.41008 1.60153 3.59699
lowerneck -8.93444 -3.27986 -4.11755
upperneck 15.9267 -3.08347 -1.63315
head 6.36136 -1.69923 -0.0741577
rclavicle -7.15625e-015 3.57812e-015
rhumerus 4.80904 9.47427 -79.8972
rradius 34.8514
rwrist -16.4234
rhand -27.5427 23.8183
rfingers 7.12502
rthumb -0.944259 -6.15931
lclavicle -7.15625e-015 3.57812e-015
lhumerus -3.62189 -15.6036 84.5095
lradius 41.2874
lwrist 36.0404
lhand -16.4222 57.3634
lfingers 7.12502
lthumb 9.7928 87.1157
rfemur -53.7862 3.01225 23.7015
rtibia 69.9935
rfoot -25.3255 -2.90787
rtoes -13.4861
lfemur -54.6062 0.985669 -24.9599
ltibia 71.7627
lfoot -204.672 188.186
ltoes -20.3234
123
root 5.4253 14.3477 9.56861 -523.49 8.67754 181.356
lowerback 21.2455 0.387036 -2.67144
upperback 9.83374 1.92406 2.32994
thorax -1.3073 1.56262 3.57
lowerneck -8.75131 -3.32607 -4.11242
upperneck 14.8989 -3.35118 -1.05877
head 6.01449 -1.79824 0.0939792
rclavicle -4.37326e-015 -3.97569e-015
rhumerus 6.34412 13.3717 -78.8589
rradius 39.878
rwrist -20.6055
rhand -27.2528 23.5382
rfingers 7.12502
rthumb -0.664284 -6.44054
lclavicle -4.37326e-015 -3.97569e-015
lhumerus -2.24888 -16.6246 84.6214
lradius 43.3418
lwrist 34.7199
lhand -14.703 60.9524
lfingers 7.12502
lthumb 11.4512 -90.6197
rfemur -52.5679 2.81081 23.8019
rtibia 67.8319
rfoot -24.6945 -2.98719
rtoes -13.5511
lfemur -53.4957 1.33284 -24.959
ltibia 69.7118
lfoot -203.86 187.9
ltoes -20.9086
124
root 5.40402 14.4981 9.53783 -523.479 8.51187 181.375
lowerback 20.4362 0.445196 -2.65469
upperback 9.53073 1.90251 2.29908
thorax -1.22985 1.51291 3.54187
lowerneck -8.72286 -3.47646 -4.21546
upperneck 14.0151 -3.71786 -0.436156
head 5.74912 -1.95041 0.283084
rclavicle -1.07344e-014 -1.70955e-014
rhumerus 7.5182 16.5158 -77.5935
rradius 45.1591
rwrist -23.3237
rhand -26.6001 23.7633
rfingers 7.12502
rthumb -0.0338347 -6.21643
lclavicle -1.07344e-014 -1.70955e-014
lhumerus -1.30884 -18.1703 84.8435
lradius 45.5913
lwrist 35.6955
lhand -16.3925 55.1466
lfingers 7.12502
lthumb 9.8215 84.8975
rfemur -51.2016 2.41328 23.8221
rtibia 65.5833
rfoot -24.0972 -2.97001
rtoes -13.088
lfemur -52.1745 1.61241 -25.0616
ltibia 67.5137
lfoot -203.208 187.433
ltoes -21.1594
125
root 5.38611 14.6454 9.50034 -523.579 8.17592 181.346
lowerback 19.7134 0.434877 -2.57175
upperback 9.18146 1.79907 2.22037
thorax -1.23298 1.42676 3.43894
lowerneck -8.64896 -3.63665 -4.29243
upperneck 13.1819 -4.08426 0.195057
head 5.49579 -2.10124 0.471094
rclavicle 1.19271e-014 -5.08889e-014
rhumerus 8.36824 18.9933 -76.4558
rradius 50.3084
rwrist -25.0403
rhand -26.056 24.5108
rfingers 7.12502
rthumb 0.491684 -5.4684
lclavicle 1.19271e-014 -5.08889e-014
lhumerus -0.81071 -19.6684 85.0803
lradius 48.0807
lwrist 36.7418
lhand -17.8297 48.2151
lfingers 7.12502
lthumb 8.43471 78.0267
rfemur -49.6798 1.91285 23.8479
rtibia 63.337
rfoot -23.3971 -2.99449
rtoes -12.6284
lfemur -50.6708 1.91859 -25.1676
ltibia 65.2752
lfoot -202.635 186.532
ltoes -20.2288
126
root 5.37452 14.793 9.45786 -523.784 7.86167 181.32
lowerback 18.9778 0.412127 -2.63601
upperback 8.87924 1.67013 2.21845
thorax -1.17614 1.32555 3.50747
lowerneck -8.69106 -3.73009 -4.52016
upperneck 12.3553 -4.3021 0.719993
head 5.26598 -2.19432 0.659243
rclavicle 6.95746e-015 1.94809e-014
rhumerus 9.1885 21.1771 -75.2339
rradius 55.1399
rwrist -26.4317
rhand -25.6451 25.5713
rfingers 7.12502
rthumb 0.888473 -4.40656
lclavicle 6.95746e-015 1.94809e-014
lhumerus -0.350532 -20.1868 85.3958
lradius 51.9502
lwrist 36.0309
lhand -16.6781 48.9469
lfingers 7.12502
lthumb 9.54596 78.7107
rfemur -48.0384 1.42802 23.9029
rtibia 61.1485
rfoot -22.5543 -3.08221
rtoes -12.6055
lfemur -49.0508 2.42333 -25.2886
ltibia 63.0461
lfoot -202.074 185.493
ltoes -19.5093
127
root 5.37366 14.934 9.41149 -523.994 7.62193 181.422
lowerback 18.2617 0.407418 -2.82344
upperback 8.51852 1.53974 2.32349
thorax -1.19131 1.21668 3.75714
lowerneck -8.81481 -3.74339 -4.83164
upperneck 11.6549 -4.35631 1.0876
head 5.08557 -2.21853 0.821532
rclavicle 1.49089e-014 1.82882e-014
rhumerus 9.74887 23.0533 -74.1616
rradius 59.6345
rwrist -27.5646
rhand -24.9284 26.2874
rfingers 7.12502
rthumb 1.58072 -3.68654
lclavicle 1.49089e-014 1.82882e-014
lhumerus -0.351782 -20.6516 85.7555
lradius 55.5285
lwrist 35.7083
lhand -17.2127 47.9945
lfingers 7.12502
lthumb 9.03005 77.7812
rfemur -46.4576 1.1311 24.0822
rtibia 59.0612
rfoot -21.665 -3.24355
rtoes -12.4672
lfemur -47.4869 3.28418 -25.3257
ltibia 60.8784
lfoot -201.441 184.396
ltoes -19.8391
128
root 5.38103 15.0643 9.3598 -524.273 7.26998 181.507
lowerback 17.7246 0.366226 -3.0066
upperback 8.00316 1.34032 2.39936
thorax -1.45305 1.07405 3.97955
lowerneck -8.72236 -3.75637 -5.14058
upperneck 11.0299 -4.41546 1.5106
head 4.89442 -2.23924 1.00337
rclavicle -2.42517e-014 -1.5704e-014
rhumerus 9.72511 24.4027 -73.6973
rradius 63.6908
rwrist -28.4453
rhand -24.3656 26.8035
rfingers 7.12502
rthumb 2.1243 -3.1657
lclavicle -2.42517e-014 -1.5704e-014
lhumerus -0.878532 -21.2242 86.1052
lradius 58.935
lwrist 35.7016
lhand -17.3183 46.7603
lfingers 7.12502
lthumb 8.92822 76.5514
rfemur -44.8475 0.870659 24.2565
rtibia 57.0746
rfoot -20.794 -3.46435
rtoes -12.0168
lfemur -45.8927 4.14326 -25.3205
ltibia 58.7768
lfoot -200.737 183.169
ltoes -19.6799
129
root 5.38957 15.1816 9.30395 -524.536 6.84251 181.51
lowerback 17.0295 0.311819 -3.10234
upperback 7.51704 1.14351 2.37138
thorax -1.5946 0.93626 4.0424
lowerneck -8.53113 -3.84555 -5.4183
upperneck 10.2896 -4.59915 2.05652
head 4.6588 -2.31352 1.21143
rclavicle -3.18055e-014 -2.3059e-014
rhumerus 9.37394 25.1423 -73.7561
rradius 67.215
rwrist -29.2539
rhand -24.087 27.1962
rfingers 7.12502
rthumb 2.39329 -2.77008
lclavicle -3.18055e-014 -2.3059e-014
lhumerus -1.17726 -22.0432 86.2905
lradius 61.848
lwrist 35.655
lhand -16.3152 46.1027
lfingers 7.12502
lthumb 9.89602 75.8502
rfemur -43.2835 0.533863 24.3348
rtibia 55.1617
rfoot -20.0448 -3.55186
rtoes -11.3442
lfemur -44.3638 4.82816 -25.3787
ltibia 56.7418
lfoot -200.075 182.177
ltoes -19.4757
130
root 5.3995 15.289 9.24203 -524.77 6.48642 181.595
lowerback 16.0828 0.255859 -3.11049
upperback 7.12849 0.974299 2.26601
thorax -1.4971 0.813515 3.9695
lowerneck -8.51341 -3.94399 -5.48669
upperneck 9.65921 -4.80368 2.57385
head 4.48309 -2.3925 1.3717
rclavicle 1.27222e-014 1.98785e-014
rhumerus 8.80646 25.545 -74.2758
rradius 70.253
rwrist -30.0317
rhand -23.756 27.4392
rfingers 7.12502
rthumb 2.71305 -2.52331
lclavicle 1.27222e-014 1.98785e-014
lhumerus -1.25718 -22.9155 86.1905
lradius 64.3967
lwrist 35.2931
lhand -14.9592 45.8996
lfingers 7.12502
lthumb 11.2041 75.5804
rfemur -41.7063 0.286573 24.4472
rtibia 53.2661
rfoot -19.5073 -3.56583
rtoes -10.4357
lfemur -42.8439 5.53577 -25.3705
ltibia 54.7707
lfoot -199.606 181.364
ltoes -19.5595
131
root 5.41346 15.3911 9.17135 -525.216 6.09366 181.72
lowerback 15.2943 0.157864 -3.14758
upperback 6.79299 0.765209 2.19399
thorax -1.4186 0.677695 3.95186
lowerneck -8.65092 -4.05419 -5.64759
upperneck 9.28634 -4.99734 3.11927
head 4.41676 -2.46628 1.55146
rclavicle 1.56046e-014 -3.18055e-015
rhumerus 8.04754 25.8675 -75.0221
rradius 72.7506
rwrist -30.7029
rhand -23.5465 27.7597
rfingers 7.12502
rthumb 2.91531 -2.20011
lclavicle 1.56046e-014 -3.18055e-015
lhumerus -1.46765 -23.5048 86.1054
lradius 66.9044
lwrist 34.907
lhand -14.6878 45.8424
lfingers 7.12502
lthumb 11.4658 75.5089
rfemur -39.8141 0.167027 24.586
rtibia 51.3455
rfoot -19.0901 -3.74039
rtoes -9.50526
lfemur -41.0482 6.15196 -25.2126
ltibia 52.8719
lfoot -199.357 180.524
ltoes -19.3596
